HIERARCHY
ROOT Hips
{
	OFFSET 0.00 0.00 0.00
	CHANNELS 6 Xposition Yposition Zposition Xrotation Yrotation Zrotation
	JOINT LeftUpLeg
	{
		OFFSET 3.34807 0.00000 0.00000
		CHANNELS 3 Xrotation Yrotation Zrotation
		JOINT LeftLeg
		{
			OFFSET 0.00000 -16.98552 0.00000
			CHANNELS 3 Xrotation Yrotation Zrotation
			JOINT LeftFoot
			{
				OFFSET 0.00000 -16.83686 0.00000
				CHANNELS 3 Xrotation Yrotation Zrotation
				JOINT LeftToeBase
				{
					OFFSET 0.00000 -1.59599 5.95633
					CHANNELS 3 Xrotation Yrotation Zrotation
					End Site
					{
						OFFSET 0.00000 0.00000 2.95275
					}
				}
			}
		}
	}
	JOINT RightUpLeg
	{
		OFFSET -3.34807 0.00000 0.00000
		CHANNELS 3 Xrotation Yrotation Zrotation
		JOINT RightLeg
		{
			OFFSET 0.00000 -16.98552 0.00000
			CHANNELS 3 Xrotation Yrotation Zrotation
			JOINT RightFoot
			{
				OFFSET 0.00000 -16.83686 0.00000
				CHANNELS 3 Xrotation Yrotation Zrotation
				JOINT RightToeBase
				{
					OFFSET 0.00000 -1.59599 5.95633
					CHANNELS 3 Xrotation Yrotation Zrotation
					End Site
					{
						OFFSET 0.00000 0.00000 2.95275
					}
				}
			}
		}
	}
	JOINT Spine
	{
		OFFSET 0.00000 0.03937 0.00000
		CHANNELS 3 Xrotation Yrotation Zrotation
		JOINT Spine1
		{
			OFFSET 0.00000 7.93124 0.00000
			CHANNELS 3 Xrotation Yrotation Zrotation
			JOINT Neck
			{
				OFFSET 0.00000 8.48368 0.00000
				CHANNELS 3 Xrotation Yrotation Zrotation
				JOINT Head
				{
					OFFSET 0.00000 6.65077 0.00000
					CHANNELS 3 Xrotation Yrotation Zrotation
					End Site
					{
						OFFSET 0.00000 4.52755 0.00000
					}
				}
			}
			JOINT LeftShoulder
			{
				OFFSET 0.00000 8.48368 0.00000
				CHANNELS 3 Xrotation Yrotation Zrotation
				JOINT LeftArm
				{
					OFFSET 7.74502 -0.00003 0.00000
					CHANNELS 3 Xrotation Yrotation Zrotation
					JOINT LeftForeArm
					{
						OFFSET 12.49824 -0.00005 0.00000
						CHANNELS 3 Xrotation Yrotation Zrotation
						JOINT LeftHand
						{
							OFFSET 9.88337 -0.00004 0.00000
							CHANNELS 3 Xrotation Yrotation Zrotation
							JOINT LeftHandThumb
							{
								OFFSET 0.00000 0.00000 0.00000
								CHANNELS 3 Xrotation Yrotation Zrotation
								End Site
								{
									OFFSET 0.00000 0.00000 3.93700
								}
							}
							JOINT L_Wrist_End
							{
								OFFSET 3.93700 -0.00001 0.00000
								CHANNELS 3 Xrotation Yrotation Zrotation
							}
						}
					}
				}
			}
			JOINT RightShoulder
			{
				OFFSET 0.00000 8.48368 0.00000
				CHANNELS 3 Xrotation Yrotation Zrotation
				JOINT RightArm
				{
					OFFSET -7.74502 -0.00003 0.00000
					CHANNELS 3 Xrotation Yrotation Zrotation
					JOINT RightForeArm
					{
						OFFSET -12.49824 -0.00005 0.00000
						CHANNELS 3 Xrotation Yrotation Zrotation
						JOINT RightHand
						{
							OFFSET -9.88337 -0.00004 0.00000
							CHANNELS 3 Xrotation Yrotation Zrotation
							JOINT RightHandThumb
							{
								OFFSET 0.00000 0.00000 0.00000
								CHANNELS 3 Xrotation Yrotation Zrotation
								End Site
								{
									OFFSET 0.00000 0.00000 3.93700
								}
							}
							JOINT R_Wrist_End
							{
								OFFSET -5.39369 -0.00002 0.00000
								CHANNELS 3 Xrotation Yrotation Zrotation
							}
						}
					}
				}
			}
		}
	}
}
MOTION
Frames: 11
Frame Time: 0.066664
 87.9151 33.3576 3.9167 132.3641 -83.8334 126.8508 -20.2900 5.1568 4.8076 44.7935 -0.0000 0.0000 -33.0232 4.8150 -10.9286 11.0017 -0.0000 0.0000 -8.9629 -12.0220 -9.1736 41.4740 -0.0000 0.0000 -16.2377 -11.6338 36.1154 -6.1634 0.0000 -0.0000 0.9452 -2.7616 -3.4530 18.6891 -7.3136 -2.5905 -11.7859 7.5703 3.8768 10.1134 -9.6901 -0.4903 -7.5178 13.8048 33.1918 4.6989 -29.1201 -50.2818 -0.0005 -66.3122 -0.0003 -3.5501 -32.5240 23.9018 -0.0000 0.0000 -0.0000 -0.0000 0.0000 -0.0000 18.4250 -18.2495 -14.3300 -23.4358 46.0666 76.8298 -0.0002 35.9935 0.0000 74.1271 -64.2432 -116.8390 -0.0000 0.0000 -0.0000 -0.0000 0.0000 -0.0000
 86.1043 34.0072 4.1789 154.0308 -81.2489 148.2987 -16.9268 10.8898 6.3638 44.4291 -0.0000 0.0000 -26.9565 2.2577 -15.2195 2.1690 0.0000 -0.0000 -5.5667 -12.5409 -10.3341 37.4892 -0.0000 0.0000 -8.0867 -7.9392 37.7130 -10.5814 -0.0000 -0.0000 0.7018 -2.7549 -3.2543 16.7229 -6.7660 -1.3727 -12.9654 8.1178 3.2730 12.9578 -8.2286 -1.7840 -6.4745 16.6827 34.4241 16.7424 -28.2606 -42.6299 -0.0009 -77.3248 -0.0007 -6.2767 -31.4253 21.0643 -0.0000 0.0000 -0.0000 -0.0000 0.0000 -0.0000 18.1684 -18.1115 -18.5121 -11.7867 47.6333 63.6525 -0.0002 47.5768 0.0001 73.3547 -64.2508 -114.7342 -0.0000 0.0000 -0.0000 -0.0000 0.0000 -0.0000
 85.1736 35.0600 4.2761 127.4435 -80.9888 124.3411 -27.7691 15.2958 7.6241 51.7462 -0.0000 0.0000 -13.7728 3.9109 -17.4932 -13.5312 0.0000 -0.0000 -4.3096 -15.6533 -11.9219 29.5375 -0.0000 0.0000 0.0357 -7.9518 38.2151 -13.7481 0.0000 -0.0000 -0.1794 -2.2349 -3.3890 17.3933 -7.3201 -3.8792 -13.6041 5.6396 2.2158 15.2842 -9.6280 -2.0140 -6.8362 17.3472 32.1935 13.9518 -28.2877 -47.0957 -0.0007 -73.7933 -0.0005 -7.4107 -31.4571 20.8751 -0.0000 0.0000 -0.0000 -0.0000 0.0000 -0.0000 18.5913 -18.7955 -17.0598 -11.3627 47.3521 64.7089 -0.0002 46.7361 0.0001 71.4264 -64.6145 -116.4144 -0.0000 0.0000 -0.0000 -0.0000 0.0000 -0.0000
 84.7628 35.0457 4.1773 94.8059 -78.7208 93.0403 -36.8423 14.6252 7.3351 33.5472 0.0000 0.0000 -21.6206 -1.1123 -22.3887 -13.3342 -0.0000 -0.0000 -3.4048 -16.5535 -11.2416 24.1520 0.0000 -0.0000 0.1460 -11.1799 41.0892 -12.5220 -0.0000 0.0000 0.7382 -2.2721 -3.2144 19.2088 -8.3580 -6.3644 -13.9742 3.8309 1.4531 14.7190 -10.8075 -1.3403 -7.5947 16.0382 31.0652 11.9565 -33.3991 -55.1104 -0.0005 -66.4380 -0.0003 -7.2349 -31.7129 22.1230 -0.0000 0.0000 -0.0000 -0.0000 0.0000 -0.0000 18.4403 -18.2370 -15.8738 -14.0462 50.6590 70.6493 -0.0002 45.7171 0.0001 75.0732 -63.5122 -114.4543 -0.0000 0.0000 -0.0000 -0.0000 0.0000 -0.0000
 83.8609 33.6113 4.1638 90.9689 -76.1826 89.2962 -46.1075 13.6120 9.1678 35.5572 -0.0000 0.0000 -19.1697 -0.7036 -20.7435 -8.4095 0.0000 0.0000 -4.0162 -19.6834 -12.0166 24.8834 -0.0000 0.0000 -9.5593 -11.0280 41.8558 -8.6946 0.0000 0.0000 0.4870 -1.4212 -3.6461 22.0781 -8.4764 -8.2477 -13.1084 3.4863 1.2612 13.5436 -10.8212 -0.3028 -7.3642 16.2459 30.6758 14.4538 -41.1526 -59.5646 -0.0005 -65.8184 -0.0003 -8.3591 -30.7736 18.0751 -0.0000 0.0000 -0.0000 -0.0000 0.0000 -0.0000 18.8289 -17.6924 -14.9688 -16.9269 54.1570 74.7537 -0.0002 47.6758 0.0001 74.0573 -62.6434 -114.9907 -0.0000 0.0000 -0.0000 -0.0000 0.0000 -0.0000
 82.4776 31.8895 4.4279 86.5897 -74.5058 84.3293 -53.8962 9.3218 9.1599 50.9146 -0.0000 0.0000 -20.6356 -0.5886 -18.7575 5.4582 0.0000 0.0000 -4.5148 -19.2195 -12.0553 30.3632 -0.0000 -0.0000 -18.8237 -15.3511 42.0058 -5.8646 0.0000 -0.0000 0.5135 -1.4089 -3.6825 23.7985 -8.9574 -9.0770 -11.8176 3.6980 1.3840 10.3867 -11.0584 0.4803 -7.2336 16.9307 29.7141 13.4705 -44.0640 -67.5051 -0.0004 -63.2470 -0.0003 -4.8027 -30.5656 18.3047 -0.0000 0.0000 -0.0000 -0.0000 0.0000 -0.0000 19.0644 -17.3792 -13.5892 -21.8679 51.1790 81.7457 -0.0002 45.8738 0.0001 71.5895 -66.3264 -118.7978 -0.0000 0.0000 -0.0000 -0.0000 0.0000 -0.0000
 80.8804 31.2595 4.9435 81.4247 -73.1044 79.2090 -55.5275 7.8135 7.0727 57.1259 -0.0000 0.0000 -23.8474 1.6112 -15.2499 16.0454 0.0000 0.0000 -5.3289 -18.4463 -13.4409 35.7229 -0.0000 0.0000 -16.6331 -15.3690 44.2276 -10.5224 0.0000 -0.0000 0.2616 -1.1114 -3.6215 25.3844 -8.7924 -9.2689 -11.1338 3.9559 1.8158 10.7918 -11.6666 0.9121 -7.4319 16.6937 29.0457 7.4004 -44.4038 -78.0587 -0.0003 -55.5422 -0.0002 -4.2705 -31.4157 20.0735 -0.0000 0.0000 -0.0000 -0.0000 0.0000 -0.0000 19.1565 -17.0067 -12.1754 -27.3160 48.3618 88.9763 -0.0002 41.0316 0.0001 69.5217 -69.9248 -122.2093 -0.0000 0.0000 -0.0000 -0.0000 0.0000 -0.0000
 79.4235 31.8031 5.3460 82.7087 -72.2676 79.8500 -52.4505 6.4541 6.1022 55.3197 -0.0000 0.0000 -25.2180 3.0005 -13.7100 14.7310 0.0000 -0.0000 -8.4744 -16.1414 -14.0907 42.2362 -0.0000 0.0000 -9.2012 -14.2454 41.6811 -11.6132 0.0000 -0.0000 0.7532 -0.9933 -3.8437 25.5239 -8.1556 -8.5900 -10.9439 3.8884 1.9137 11.1384 -11.5279 2.0160 -7.3743 17.0026 28.8333 5.0363 -43.0961 -83.6650 -0.0003 -54.3558 -0.0002 -3.1286 -32.5523 21.7938 -0.0000 0.0000 -0.0000 -0.0000 0.0000 -0.0000 18.2638 -16.1128 -12.8200 -31.1889 46.2612 93.9261 -0.0002 40.7270 0.0001 66.5899 -74.3384 -126.1781 -0.0000 0.0000 -0.0000 -0.0000 0.0000 -0.0000
 78.0567 32.8994 5.5973 83.6071 -71.5000 79.9763 -47.1139 6.3952 5.8915 48.5021 -0.0000 0.0000 -24.2976 2.8357 -12.3454 13.6348 0.0000 0.0000 -12.6507 -15.5717 -13.0680 45.0895 0.0000 0.0000 -12.2169 -16.1715 37.4018 -8.1305 0.0000 -0.0000 1.1713 -1.3235 -3.7334 24.7157 -7.9438 -7.8443 -10.5724 4.0345 2.3199 10.7550 -11.8422 2.5169 -7.0228 17.3106 28.6868 5.1696 -40.5509 -84.6100 -0.0003 -57.1843 -0.0002 -1.8203 -33.0590 23.0717 -0.0000 0.0000 -0.0000 -0.0000 0.0000 -0.0000 18.1880 -16.4087 -12.7666 -31.5638 42.0506 94.0876 -0.0002 45.2014 0.0001 70.6374 -76.6245 -128.7800 -0.0000 0.0000 -0.0000 -0.0000 0.0000 -0.0000
 76.6611 33.8909 5.7893 87.5629 -72.3064 82.6793 -40.4193 4.7855 5.9977 41.8403 -0.0000 0.0000 -22.7769 4.5471 -10.1378 11.5374 -0.0000 0.0000 -16.1492 -14.4114 -10.7669 44.4082 -0.0000 0.0000 -14.0456 -16.8538 35.1051 -7.6125 0.0000 -0.0000 1.2027 -1.6678 -3.3825 24.7011 -7.5420 -6.6942 -10.4282 4.6927 2.9263 10.8550 -12.1139 2.3864 -7.3190 17.3354 28.9104 5.8135 -36.8794 -83.9866 -0.0004 -59.6896 -0.0002 -0.9557 -33.0280 24.8197 -0.0000 -0.0000 0.0000 -0.0000 -0.0000 0.0000 17.6673 -16.3625 -12.7991 -30.2878 40.9930 92.0209 -0.0002 48.3989 0.0001 62.4748 -76.2266 -134.9668 -0.0000 0.0000 -0.0000 -0.0000 0.0000 -0.0000
 75.2742 34.4678 5.9207 95.7597 -73.8997 90.0676 -33.9999 5.5717 6.9172 37.1127 -0.0000 0.0000 -22.5268 5.7731 -8.3969 10.5235 -0.0000 0.0000 -19.8198 -14.0140 -9.1655 42.1026 0.0000 0.0000 -14.0698 -14.4463 36.2625 -8.7774 0.0000 0.0000 1.0743 -1.9887 -3.1864 24.5847 -7.2559 -5.6852 -9.9692 5.6147 3.1931 10.3456 -11.8527 1.7433 -7.3814 17.5580 28.7055 6.9658 -34.8531 -80.2233 -0.0004 -62.6393 -0.0002 -0.4172 -33.4850 25.0199 -0.0000 0.0000 -0.0000 -0.0000 0.0000 -0.0000 17.5108 -16.3763 -13.0459 -30.1593 41.2678 90.8227 -0.0002 48.8286 0.0001 69.6321 -74.5211 -128.9415 -0.0000 0.0000 -0.0000 -0.0000 0.0000 -0.0000
